<?xml version="1.0" encoding="utf-8"?>
<!-- Generator: Adobe Illustrator 15.0.0, SVG Export Plug-In . SVG Version: 6.00 Build 0)  -->
<!DOCTYPE svg PUBLIC "-//W3C//DTD SVG 1.1//EN" "http://www.w3.org/Graphics/SVG/1.1/DTD/svg11.dtd">
<svg version="1.1" id="Layer_1" xmlns="http://www.w3.org/2000/svg" xmlns:xlink="http://www.w3.org/1999/xlink" x="0px" y="0px"
	 width="47.108px" height="47.11px" viewBox="0 0 47.108 47.11" enable-background="new 0 0 47.108 47.11" xml:space="preserve">
<path fill-rule="evenodd" clip-rule="evenodd" fill="#F70000" d="M23.564,3.883c-5.449,0-10.354,2.188-13.931,5.762
	c-3.563,3.558-5.751,8.428-5.751,13.914c0,5.436,2.188,10.34,5.751,13.915c3.577,3.565,8.481,5.704,13.931,5.704
	c5.43,0,10.342-2.139,13.922-5.704c3.552-3.575,5.705-8.479,5.705-13.915c0-5.486-2.153-10.356-5.705-13.914
	C33.906,6.071,28.994,3.883,23.564,3.883L23.564,3.883z M23.564,34.985L23.564,34.985c-0.547,0-0.988-0.277-1.385-0.68
	c-0.369-0.34-0.547-0.797-0.547-1.336v-7.445h-7.527c-0.447,0-0.984-0.178-1.304-0.57c-0.397-0.367-0.584-0.809-0.584-1.395
	c0-0.531,0.187-1.055,0.584-1.379c0.319-0.361,0.856-0.532,1.304-0.532h7.527v-7.55c0-0.445,0.178-0.971,0.547-1.288
	c0.309-0.364,0.838-0.528,1.385-0.528c0.579,0,1.02,0.164,1.38,0.528c0.399,0.317,0.579,0.843,0.579,1.288v7.55h7.452
	c0.484,0,0.979,0.171,1.32,0.532c0.37,0.324,0.68,0.848,0.68,1.379c0,0.586-0.31,1.027-0.68,1.395
	c-0.342,0.393-0.836,0.57-1.32,0.57h-7.452v7.445c0,0.539-0.18,0.996-0.579,1.336C24.584,34.708,24.144,34.985,23.564,34.985
	L23.564,34.985z M23.564,47.11L23.564,47.11c-6.479,0-12.362-2.619-16.633-6.912C2.635,35.963,0,30.071,0,23.559
	c0-6.465,2.635-12.361,6.932-16.64C11.202,2.643,17.086,0,23.564,0c6.513,0,12.396,2.643,16.627,6.919
	c4.281,4.278,6.917,10.175,6.917,16.64c0,6.512-2.636,12.404-6.917,16.639C35.961,44.491,30.077,47.11,23.564,47.11L23.564,47.11z"
	/>
</svg>
