<?xml version="1.0" encoding="utf-8"?>
<!-- Generator: Adobe Illustrator 15.0.0, SVG Export Plug-In . SVG Version: 6.00 Build 0)  -->
<!DOCTYPE svg PUBLIC "-//W3C//DTD SVG 1.1//EN" "http://www.w3.org/Graphics/SVG/1.1/DTD/svg11.dtd">
<svg version="1.1" id="Layer_1" xmlns="http://www.w3.org/2000/svg" xmlns:xlink="http://www.w3.org/1999/xlink" x="0px" y="0px"
	 width="47.109px" height="47.111px" viewBox="0 0 47.109 47.111" enable-background="new 0 0 47.109 47.111" xml:space="preserve">
<g>
	<path fill-rule="evenodd" clip-rule="evenodd" fill="#F70000" d="M40.191,6.92C35.962,2.645,30.078,0,23.564,0
		C17.087,0,11.203,2.645,6.934,6.92C2.635,11.198,0,17.096,0,23.56c0,6.512,2.635,12.404,6.934,16.639
		c4.27,4.294,10.153,6.913,16.631,6.913c6.514,0,12.397-2.619,16.627-6.913c4.283-4.234,6.918-10.127,6.918-16.639
		C47.109,17.096,44.475,11.198,40.191,6.92z M37.488,37.475c-3.582,3.566-8.494,5.705-13.924,5.705
		c-5.448,0-10.353-2.139-13.93-5.705C6.07,33.9,3.884,28.996,3.884,23.56c0-5.486,2.187-10.355,5.751-13.913
		c3.577-3.576,8.481-5.762,13.93-5.762c5.43,0,10.342,2.186,13.924,5.762c3.551,3.558,5.705,8.427,5.705,13.913
		C43.193,28.996,41.039,33.9,37.488,37.475z"/>
	<g>
		<g>
			<g>
				<path fill="#F70000" d="M31.04,13.298h-3.992c-0.2-1.727-1.67-3.072-3.45-3.072c-1.778,0-3.248,1.346-3.447,3.072h-3.993
					c-1.616,0-2.931,1.313-2.931,2.93v0.15c0,1.235,0.77,2.294,1.853,2.725v13.845c0,1.614,1.313,2.928,2.931,2.928h11.178
					c1.617,0,2.931-1.313,2.931-2.928V19.103c1.084-0.431,1.853-1.489,1.853-2.725v-0.15C33.971,14.611,32.656,13.298,31.04,13.298z
					 M23.598,11.614c1.014,0,1.857,0.725,2.045,1.684h-4.088C21.742,12.339,22.586,11.614,23.598,11.614z M30.729,32.947
					c0,0.848-0.691,1.54-1.541,1.54H18.01c-0.85,0-1.541-0.692-1.541-1.54V19.312h14.26V32.947z M32.581,16.378
					c0,0.851-0.69,1.541-1.541,1.541H16.157c-0.851,0-1.541-0.69-1.541-1.541v-0.15c0-0.85,0.69-1.539,1.541-1.539H31.04
					c0.851,0,1.541,0.689,1.541,1.539V16.378L32.581,16.378z"/>
				<path fill="#F70000" d="M29.188,36.32H18.01c-1.86,0-3.375-1.515-3.375-3.373V19.389c-1.135-0.572-1.853-1.725-1.853-3.011
					v-0.15c0-1.859,1.514-3.375,3.375-3.375h3.618c0.39-1.777,1.969-3.072,3.822-3.072c1.855,0,3.437,1.295,3.826,3.072h3.616
					c1.861,0,3.375,1.516,3.375,3.375v0.15c0,1.286-0.718,2.438-1.853,3.011v13.559C32.563,34.806,31.049,36.32,29.188,36.32z
					 M16.157,13.74c-1.371,0-2.487,1.117-2.487,2.487v0.15c0,1.022,0.617,1.933,1.574,2.312l0.279,0.111v14.146
					c0,1.368,1.115,2.485,2.486,2.485h11.178c1.371,0,2.486-1.117,2.486-2.485V18.801l0.279-0.111
					c0.957-0.379,1.574-1.289,1.574-2.312v-0.15c0-1.37-1.116-2.487-2.487-2.487h-4.388l-0.046-0.393
					c-0.177-1.528-1.47-2.68-3.009-2.68c-1.536,0-2.829,1.151-3.006,2.68l-0.046,0.393H16.157z M29.188,34.931H18.01
					c-1.095,0-1.985-0.89-1.985-1.983V18.866h15.148v14.081C31.173,34.041,30.282,34.931,29.188,34.931z M16.912,19.754v13.193
					c0,0.604,0.492,1.096,1.098,1.096h11.178c0.605,0,1.098-0.492,1.098-1.096V19.754H16.912z M31.04,18.364H16.157
					c-1.095,0-1.985-0.893-1.985-1.986v-0.15c0-1.094,0.891-1.983,1.985-1.983H31.04c1.095,0,1.985,0.89,1.985,1.983v0.15
					C33.025,17.472,32.135,18.364,31.04,18.364z M16.157,15.133c-0.604,0-1.096,0.492-1.096,1.095v0.15
					c0,0.604,0.491,1.098,1.096,1.098H31.04c0.604,0,1.096-0.493,1.096-1.098v-0.15c0-0.603-0.491-1.095-1.096-1.095H16.157z
					 M26.183,13.74h-5.168l0.104-0.528c0.23-1.183,1.274-2.041,2.479-2.041c1.206,0,2.25,0.858,2.48,2.041L26.183,13.74z
					 M22.194,12.853h2.808c-0.289-0.48-0.815-0.794-1.404-0.794C23.011,12.059,22.484,12.372,22.194,12.853z"/>
			</g>
			<g>
				<path fill="#F70000" d="M19.873,32.709c0.383,0,0.694-0.312,0.694-0.693v-7.827c0-0.382-0.312-0.694-0.694-0.694
					s-0.695,0.313-0.695,0.694v7.827C19.178,32.397,19.49,32.709,19.873,32.709z"/>
				<path fill="#F70000" d="M19.873,33.152c-0.629,0-1.14-0.509-1.14-1.137v-7.827c0-0.626,0.511-1.139,1.14-1.139
					c0.628,0,1.139,0.513,1.139,1.139v7.827C21.012,32.644,20.501,33.152,19.873,33.152z M19.873,23.938
					c-0.139,0-0.251,0.111-0.251,0.25v7.827c-0.001,0.27,0.501,0.272,0.502,0v-7.827C20.124,24.05,20.012,23.938,19.873,23.938z"/>
			</g>
			<g>
				<path fill="#F70000" d="M23.598,32.709c0.385,0,0.695-0.312,0.695-0.693v-7.827c0-0.382-0.311-0.694-0.695-0.694
					c-0.383,0-0.694,0.313-0.694,0.694v7.827C22.903,32.397,23.215,32.709,23.598,32.709z"/>
				<path fill="#F70000" d="M23.598,33.152c-0.627,0-1.139-0.509-1.139-1.137v-7.827c0-0.626,0.512-1.139,1.139-1.139
					c0.629,0,1.141,0.513,1.141,1.139v7.827C24.738,32.644,24.227,33.152,23.598,33.152z M23.598,23.938
					c-0.137,0-0.25,0.111-0.25,0.25v7.827c0,0.272,0.502,0.272,0.502,0v-7.827C23.85,24.05,23.736,23.938,23.598,23.938z"/>
			</g>
			<g>
				<path fill="#F70000" d="M27.324,32.709c0.384,0,0.695-0.312,0.695-0.693v-7.827c0-0.382-0.312-0.694-0.695-0.694
					c-0.383,0-0.695,0.313-0.695,0.694v7.827C26.629,32.397,26.941,32.709,27.324,32.709z"/>
				<path fill="#F70000" d="M27.324,33.152c-0.628,0-1.139-0.509-1.139-1.137v-7.827c0-0.626,0.511-1.139,1.139-1.139
					c0.629,0,1.14,0.513,1.14,1.139v7.827C28.464,32.644,27.953,33.152,27.324,33.152z M27.324,23.938
					c-0.138,0-0.251,0.111-0.251,0.25v7.827c-0.002,0.272,0.503,0.27,0.503,0v-7.827C27.576,24.05,27.463,23.938,27.324,23.938z"/>
			</g>
		</g>
	</g>
</g>
</svg>
