<?xml version="1.0" encoding="utf-8"?>
<!-- Generator: Adobe Illustrator 15.0.0, SVG Export Plug-In . SVG Version: 6.00 Build 0)  -->
<!DOCTYPE svg PUBLIC "-//W3C//DTD SVG 1.1//EN" "http://www.w3.org/Graphics/SVG/1.1/DTD/svg11.dtd">
<svg version="1.1" id="Layer_1" xmlns="http://www.w3.org/2000/svg" xmlns:xlink="http://www.w3.org/1999/xlink" x="0px" y="0px"
	 width="47.103px" height="47.109px" viewBox="0 0 47.103 47.109" enable-background="new 0 0 47.103 47.109" xml:space="preserve">
<path fill="#F70000" d="M23.557,43.003c-10.747,0-19.453-8.69-19.453-19.438c0-10.714,8.706-19.424,19.453-19.424
	c10.708,0,19.421,8.71,19.421,19.424C42.978,34.313,34.265,43.003,23.557,43.003L23.557,43.003z M23.555,29.02L23.555,29.02
	c-1.66,0-2.986,1.333-2.986,2.969c0,1.633,1.326,2.946,2.986,2.946c1.629,0,2.96-1.313,2.96-2.946
	C26.515,30.353,25.184,29.02,23.555,29.02L23.555,29.02z M23.555,12.178L23.555,12.178c-1.66,0-2.986,1.324-2.986,2.961v8.937
	c0,1.632,1.326,2.951,2.986,2.951c1.629,0,2.96-1.319,2.96-2.951v-8.937C26.515,13.502,25.184,12.178,23.555,12.178L23.555,12.178z
	 M23.557,47.109L23.557,47.109c12.978,0,23.546-10.563,23.546-23.545C47.103,10.581,36.534,0,23.557,0C10.567,0,0,10.581,0,23.564
	C0,36.547,10.567,47.109,23.557,47.109L23.557,47.109z"/>
</svg>
