<?xml version="1.0" encoding="utf-8"?>
<!-- Generator: Adobe Illustrator 15.0.0, SVG Export Plug-In . SVG Version: 6.00 Build 0)  -->
<!DOCTYPE svg PUBLIC "-//W3C//DTD SVG 1.1//EN" "http://www.w3.org/Graphics/SVG/1.1/DTD/svg11.dtd">
<svg version="1.1" id="Layer_1" xmlns="http://www.w3.org/2000/svg" xmlns:xlink="http://www.w3.org/1999/xlink" x="0px" y="0px"
	 width="30.108px" height="29.436px" viewBox="0 0 30.108 29.436" enable-background="new 0 0 30.108 29.436" xml:space="preserve">
<g>
	<path fill="#FFFFFF" d="M21.09,6.548V1.471C21.09,0.661,20.43,0,19.619,0H1.472C0.662,0,0,0.661,0,1.471v0.956v19.178v0.663
		c0,0.54,0.318,1.054,0.785,1.299l11.183,5.789c0.49,0.245,1.079-0.099,1.079-0.662v-5.641h6.572c0.811,0,1.471-0.662,1.471-1.472
		v-8.044h-2.943v5.836c0,0.417-0.317,0.736-0.734,0.736H13.07v-7.553V7.773V7.627c0-0.539-0.317-1.055-0.783-1.3L5.689,2.942h11.723
		c0.417,0,0.734,0.318,0.734,0.736v2.894h2.943V6.548z"/>
	<path fill="#FFFFFF" d="M24.868,4.145l4.781,4.781c0.612,0.612,0.612,1.521,0,2.134l-4.781,4.781
		c-0.614,0.614-1.547,0.64-2.159,0.026c-0.589-0.589-0.515-1.57,0.049-2.159l2.159-2.133h-8.363c-0.417,0-0.834-0.173-1.103-0.49
		c-0.688-0.736-0.517-2.036,0.366-2.526c0.222-0.123,0.491-0.196,0.736-0.196h8.363c0,0-2.134-2.134-2.159-2.134
		c-0.563-0.563-0.638-1.569-0.049-2.134C23.298,3.507,24.254,3.53,24.868,4.145z"/>
</g>
</svg>
