<?xml version="1.0" encoding="utf-8"?>
<!-- Generator: Adobe Illustrator 15.0.0, SVG Export Plug-In . SVG Version: 6.00 Build 0)  -->
<!DOCTYPE svg PUBLIC "-//W3C//DTD SVG 1.1//EN" "http://www.w3.org/Graphics/SVG/1.1/DTD/svg11.dtd">
<svg version="1.1" id="Layer_1" xmlns="http://www.w3.org/2000/svg" xmlns:xlink="http://www.w3.org/1999/xlink" x="0px" y="0px"
	 width="47.106px" height="47.072px" viewBox="0 0 47.106 47.072" enable-background="new 0 0 47.106 47.072" xml:space="preserve">
<g>
	<path fill-rule="evenodd" clip-rule="evenodd" fill="#F70000" d="M40.15,6.902C35.911,2.619,30.033,0,23.527,0
		c-6.464,0-12.35,2.619-16.623,6.902C2.66,11.182,0,17.078,0,23.525c0,6.508,2.66,12.4,6.904,16.629
		c4.273,4.289,10.159,6.918,16.623,6.918c6.506,0,12.384-2.629,16.623-6.918c4.279-4.229,6.956-10.121,6.956-16.629
		C47.106,17.078,44.43,11.182,40.15,6.902z M37.429,37.449c-3.563,3.553-8.456,5.699-13.901,5.699
		c-5.442,0-10.293-2.146-13.909-5.699c-3.524-3.574-5.72-8.479-5.72-13.924c0-5.48,2.195-10.338,5.72-13.904
		c3.616-3.574,8.467-5.762,13.909-5.762c5.445,0,10.338,2.188,13.901,5.762c3.58,3.566,5.72,8.424,5.72,13.904
		C43.148,28.971,41.009,33.875,37.429,37.449z"/>
	<g>
		<path fill-rule="evenodd" clip-rule="evenodd" fill="#F70000" d="M14.745,28.279l-0.092,0.424l-1.059,4.047
			c-0.091,0.393,0.243,0.785,0.605,0.785c0.061,0,0.121,0,0.182-0.031l4.049-1.025l0.422-0.09l0.425-0.121l0.33-0.09l-0.785-0.332
			l-0.725-0.363c-0.121-0.061-0.243-0.152-0.304-0.273l-0.45-0.875l-0.123-0.182c-0.059-0.121-0.15-0.211-0.241-0.271l-0.211-0.121
			l-0.875-0.453c-0.124-0.059-0.215-0.182-0.274-0.271l-0.329-0.756l-0.362-0.785l-0.093,0.361L14.745,28.279z"/>
		<polygon fill-rule="evenodd" clip-rule="evenodd" fill="#F70000" points="26.616,15.5 25.136,16.98 15.348,26.738 17.403,28.793 
			27.19,19.035 28.007,19.82 18.22,29.58 20.273,31.635 30.061,21.846 31.479,20.396 		"/>
		<path fill-rule="evenodd" clip-rule="evenodd" fill="#F70000" d="M33.112,17.586l-3.838-3.867
			c-0.121-0.121-0.272-0.182-0.453-0.182c-0.15,0-0.333,0.061-0.423,0.182l-0.814,0.814l4.833,4.895l1.026-1.025
			C33.685,18.16,33.354,17.795,33.112,17.586L33.112,17.586z"/>
	</g>
</g>
</svg>
